 http://img802.imageshack.us/img802/5622/916823429.jpg

Country.......: Netherlands
Genre.........: Drama
Date release..: 18.09.2010 [World]
Director......: Hanro Smitsman
Writers.......: Anjet Daanje
Duration......: 88 min.
More..........: http://www.imdb.com/title/tt1467061
Trailer.......:

Pilot :
The haunting search to discover why fifteen-year old Jessie was murdered by her closest friends. 

Cats :
Matthijs van de Sande Bakhuyzen   	 ...  	Caesar
Gaite Jansen 	... 	Jessie
Roos Netjes 	... 	Ilse
Robert de Hoog 	... 	Mick
Gerson Oratmangoen 	... 	Rico
Melody Klaver 	... 	Frauk
Roos Ouwehand 	... 	Anna
Marie Louise Stheins 	... 	Lia
Finn Poncin 	... 	Tom 

Data Technical :
!!! SAMPLE !!!
Audio.....: Dutch
Subtitles.: English .srt, English .sub
Format                           : AVI
Format/Info                      : Audio Video Interleave
File size                        : 699 MiB
Duration                         : 1h 28mn
Overall bit rate                 : 1 105 Kbps
Writing application              : VirtualDubMod 1.5.10.2 (build 2540/release)
Writing library                  : VirtualDubMod build 2540/release
Video
ID                               : 0
Format                           : MPEG-4 Visual
Format profile                   : Advanced Simple@L5
Format settings, BVOP            : Yes
Format settings, QPel            : No
Format settings, GMC             : No warppoints
Format settings, Matrix          : Default (H.263)
Muxing mode                      : Packed bitstream
Codec ID                         : XVID
Codec ID/Hint                    : XviD
Duration                         : 1h 28mn
Bit rate                         : 903 Kbps
Width                            : 640 pixels
Height                           : 336 pixels
Display aspect ratio             : 1.905
Frame rate                       : 25.000 fps
Color space                      : YUV
Chroma subsampling               : 4:2:0
Bit depth                        : 8 bits
Scan type                        : Progressive
Bits/(Pixel*Frame)               : 0.168
Stream size                      : 571 MiB (82%)
Writing library                  : XviD 62
Audio
ID                               : 1
Format                           : AC-3
Format/Info                      : Audio Coding 3
Mode extension                   : CM (complete main)
Codec ID                         : 2000
Duration                         : 1h 28mn
Bit rate mode                    : Constant
Bit rate                         : 192 Kbps
Channel(s)                       : 2 channels
Channel positions                : Front: L R
Sampling rate                    : 48.0 KHz
Bit depth                        : 16 bits
Stream size                      : 121 MiB (17%)
Alignment                        : Split accross interleaves
Interleave, duration             : 40 ms (1.00 video frame)
Interleave, preload duration     : 500 ms

Screen : 
http://img156.imageshack.us/img156/2456/dusk2010s1.jpg 
http://img852.imageshack.us/img852/2241/dusk2010s2.jpg 
http://img803.imageshack.us/img803/3392/dusk2010s3.jpg 
http://img84.imageshack.us/img84/4294/dusk2010s4.jpg 
http://img189.imageshack.us/img189/4499/dusk2010s5.jpg